{"title":"Flicka.3.Country.Pride.2012.DVDRip.XviD-miRaGe","uid":7243080,"size":737284097,"categoryP":"video","categoryS":"movies","magnet":"?xt=urn:btih:42684c2d448812f5a36df64a8591807f1b49744d&amp;dn=Flicka.3.Country.Pride.2012.DVDRip.XviD-miRaGe&amp;tr=udp%3A%2F%2Ftracker.openbittorrent.com%3A80&amp;tr=udp%3A%2F%2Fopen.demonii.com%3A1337&amp;tr=udp%3A%2F%2Ftracker.coppersurfer.tk%3A6969&amp;tr=udp%3A%2F%2Fexodus.desync.com%3A6969","seeders":2,"leechers":3,"uploader":"maximersk","files":2,"time":1336188965,"description":"Flicka.3.Country.Pride.2012.DVDRip.XviD-miRaGe\n\n\n\n\n\n\nFlicka 3 Country Pride 2012 DVDRip XviD-miRaGe\n\nOnline Info:\n\nimdb: http://www.imdb.com/title/tt2039339/\nrating: G\nruntime: 111 min\ngenre: Family\nrelease date: May 1 2012\nplot: Flicka and Toby help out a struggling stable owner and her teenage daughter.\n\n\nDetails:\n\nFormat : AVI\nFormat/Info : Audio Video Interleave\nFile size : 703 MiB\nDuration : 1h 32mn\nOverall bit rate mode : Variable\nOverall bit rate : 1 066 Kbps\n\nVideo:\n\nCodec ID : XVID\nDuration : 1h 32mn\nBit rate : 940 Kbps\nWidth : 624 pixels\nHeight : 352 pixels\nDisplay aspect ratio : 16:9\nFrame rate : 23.976 fps\nColor space : YUV\nChroma subsampling : 4:2:0\nBit depth : 8 bits\nScan type : Progressive\nCompression mode : Lossy\nBits/(Pixel*Frame) : 0.179\nStream size : 620 MiB (88%)\nWriting library : XviD 64\n\nAudio:\n\nID : 1\nFormat : MPEG Audio\nFormat version : Version 1\nFormat profile : Layer 3\nMode : Joint stereo\nMode extension : MS Stereo\nCodec ID : 55\nCodec ID/Hint : MP3\nDuration : 1h 32mn\nBit rate mode : Variable\nBit rate : 113 Kbps\nNominal bit rate : 128 Kbps\nChannel(s) : 2 channels\nSampling rate : 48.0 KHz\nCompression mode : Lossy\nStream size : 74.6 MiB (11%)\nAlignment : Aligned on interleaves\nInterleave, duration : 24 ms (0.58 video frame)\nInterleave, preload duration : 162 ms","torrent":{"xt":"urn:btih:42684c2d448812f5a36df64a8591807f1b49744d","amp;dn":"Flicka.3.Country.Pride.2012.DVDRip.XviD-miRaGe","amp;tr":["udp%3A%2F%2Ftracker.openbittorrent.com%3A80","udp%3A%2F%2Fopen.demonii.com%3A1337","udp%3A%2F%2Ftracker.coppersurfer.tk%3A6969","udp%3A%2F%2Fexodus.desync.com%3A6969"],"infoHash":"42684c2d448812f5a36df64a8591807f1b49744d","infoHashBuffer":{"type":"Buffer","data":[66,104,76,45,68,136,18,245,163,109,246,74,133,145,128,127,27,73,116,77]},"announce":[],"urlList":[]}}